<?xml version="1.0" encoding="UTF-8" standalone="no"?><svg xmlns="http://www.w3.org/2000/svg" xmlns:xlink="http://www.w3.org/1999/xlink" contentScriptType="application/ecmascript" contentStyleType="text/css" height="269px" preserveAspectRatio="none" style="width:262px;height:269px;" version="1.1" viewBox="0 0 262 269" width="262px" zoomAndPan="magnify"><defs><filter height="300%" id="f681teepasu2g" width="300%" x="-1" y="-1"><feGaussianBlur result="blurOut" stdDeviation="2.0"/><feColorMatrix in="blurOut" result="blurOut2" type="matrix" values="0 0 0 0 0 0 0 0 0 0 0 0 0 0 0 0 0 0 .4 0"/><feOffset dx="4.0" dy="4.0" in="blurOut2" result="blurOut3"/><feBlend in="SourceGraphic" in2="blurOut3" mode="normal"/></filter></defs><g><text fill="#000000" font-family="sans-serif" font-size="18" lengthAdjust="spacingAndGlyphs" textLength="97" x="76.5" y="18.6855">Header_text</text><!--entity Person_alias_1--><ellipse cx="52.5" cy="58.25" fill="#566775" rx="8" ry="8" style="stroke: #566775; stroke-width: 2.0;"/><path d="M52.5,66.25 L52.5,93.25 M39.5,74.25 L65.5,74.25 M52.5,93.25 L39.5,108.25 M52.5,93.25 L65.5,108.25 " fill="none" style="stroke: #566775; stroke-width: 2.0;"/><text fill="#2C3E50" font-family="sans-serif" font-size="16" font-weight="bold" lengthAdjust="spacingAndGlyphs" textLength="36" x="34.5" y="127.8594">label</text><text fill="#2C3E50" font-family="sans-serif" font-size="14" font-style="italic" lengthAdjust="spacingAndGlyphs" textLength="69" x="18" y="145.9082">description</text><text fill="#2C3E50" font-family="sans-serif" font-size="14" font-style="italic" lengthAdjust="spacingAndGlyphs" textLength="60" x="22.5" y="45.1738">«person»</text><!--entity Person_alias_2--><ellipse cx="185.5" cy="58.25" fill="#566775" rx="8" ry="8" style="stroke: #566775; stroke-width: 2.0;"/><path d="M185.5,66.25 L185.5,93.25 M172.5,74.25 L198.5,74.25 M185.5,93.25 L172.5,108.25 M185.5,93.25 L198.5,108.25 " fill="none" style="stroke: #566775; stroke-width: 2.0;"/><text fill="#2C3E50" font-family="sans-serif" font-size="16" font-weight="bold" lengthAdjust="spacingAndGlyphs" textLength="36" x="167.5" y="127.8594">label</text><text fill="#2C3E50" font-family="sans-serif" font-size="14" font-style="italic" lengthAdjust="spacingAndGlyphs" textLength="69" x="151" y="145.9082">description</text><text fill="#2C3E50" font-family="sans-serif" font-size="14" font-style="italic" lengthAdjust="spacingAndGlyphs" textLength="60" x="155.5" y="45.1738">«person»</text><path d="M164,209.6406 L164,235.9922 A0,0 0 0 0 164,235.9922 L207,235.9922 A0,0 0 0 0 207,235.9922 L207,219.6406 L197,209.6406 L189.5,209.6406 L185.5,148.862 L181.5,209.6406 L164,209.6406 A0,0 0 0 0 164,209.6406 " fill="#FFFFFF" filter="url(#f681teepasu2g)" style="stroke: #B6C1C5; stroke-width: 1.0;"/><path d="M197,209.6406 L197,219.6406 L207,219.6406 L197,209.6406 " fill="#FFFFFF" style="stroke: #B6C1C5; stroke-width: 1.0;"/><text fill="#566775" font-family="sans-serif" font-size="13" lengthAdjust="spacingAndGlyphs" textLength="22" x="170" y="228.1357">text</text><!--link Person_alias_1 to Person_alias_2--><path d="M87.097,89.6406 C104.9666,89.6406 126.864,89.6406 145.462,89.6406 " fill="none" id="Person_alias_1-&gt;Person_alias_2" style="stroke: #566775; stroke-width: 1.0;"/><polygon fill="#566775" points="150.614,89.6406,141.614,85.6406,145.614,89.6406,141.614,93.6406,150.614,89.6406" style="stroke: #566775; stroke-width: 1.0;"/><text fill="#2C3E50" font-family="sans-serif" font-size="12" lengthAdjust="spacingAndGlyphs" textLength="27" x="105.5" y="83.0977">label</text><text fill="#888888" font-family="sans-serif" font-size="10" lengthAdjust="spacingAndGlyphs" textLength="250" x="0" y="256.0215">doc.common.puml | Thu Feb 27 23:18:21 CET 2020</text><!--
@startuml doc.common





skinparam defaultTextAlignment center
skinparam wrapWidth 200
skinparam maxMessageSize 150



















skinparam Note {
    FontColor #566775
    BackgroundColor white
    BorderColor #b6c1c5
}


skinparam actor<<person>> {
    StereotypeFontColor #2c3e50
    FontColor #2c3e50
    BackgroundColor #566775
    BorderColor #566775
    Shadowing false
}

skinparam Arrow {
    FontColor #2c3e50
    Color #566775
    FontSize 12
}



title Header_text

top to bottom direction


actor "==label\n //description//" <<person>> as Person_alias_1
actor "==label\n //description//" <<person>> as Person_alias_2


Person_alias_1 -RIGHT-> Person_alias_2 : "label"

note bottom of Person_alias_2 : text


left footer doc.common.puml | Thu Feb 27 23:18:21 CET 2020

@enduml

PlantUML version 1.2019.09(Mon Aug 26 18:19:51 CEST 2019)
(GPL source distribution)
Java Runtime: Java(TM) SE Runtime Environment
JVM: Java HotSpot(TM) Client VM
Java Version: 1.8.0_40-b26
Operating System: Windows 8.1
OS Version: 6.3
Default Encoding: Cp1250
Language: pl
Country: PL
--></g></svg>