<?xml version="1.0" encoding="UTF-8" standalone="no"?><svg xmlns="http://www.w3.org/2000/svg" xmlns:xlink="http://www.w3.org/1999/xlink" contentScriptType="application/ecmascript" contentStyleType="text/css" height="362px" preserveAspectRatio="none" style="width:452px;height:362px;" version="1.1" viewBox="0 0 452 362" width="452px" zoomAndPan="magnify"><defs><filter height="300%" id="fov0trq4x97qb" width="300%" x="-1" y="-1"><feGaussianBlur result="blurOut" stdDeviation="2.0"/><feColorMatrix in="blurOut" result="blurOut2" type="matrix" values="0 0 0 0 0 0 0 0 0 0 0 0 0 0 0 0 0 0 .4 0"/><feOffset dx="4.0" dy="4.0" in="blurOut2" result="blurOut3"/><feBlend in="SourceGraphic" in2="blurOut3" mode="normal"/></filter></defs><g><text fill="#000000" font-family="sans-serif" font-size="18" lengthAdjust="spacingAndGlyphs" textLength="111" x="170.5" y="18.6855">View Example</text><!--entity person--><ellipse cx="39" cy="58.25" fill="#566775" rx="8" ry="8" style="stroke: #566775; stroke-width: 2.0;"/><path d="M39,66.25 L39,93.25 M26,74.25 L52,74.25 M39,93.25 L26,108.25 M39,93.25 L52,108.25 " fill="none" style="stroke: #566775; stroke-width: 2.0;"/><text fill="#2C3E50" font-family="sans-serif" font-size="16" font-weight="bold" lengthAdjust="spacingAndGlyphs" textLength="36" x="21" y="127.8594">User</text><text fill="#2C3E50" font-family="sans-serif" font-size="14" font-style="italic" lengthAdjust="spacingAndGlyphs" textLength="66" x="6" y="145.9082">Real client</text><text fill="#2C3E50" font-family="sans-serif" font-size="14" font-style="italic" lengthAdjust="spacingAndGlyphs" textLength="60" x="9" y="45.1738">«person»</text><!--entity systemA--><a href="view.container.svg" target="_top" xlink:actuate="onRequest" xlink:show="new" xlink:title="view.container.svg" xlink:type="simple"><polygon fill="#ECF0F1" filter="url(#fov0trq4x97qb)" points="111.5,57.1406,121.5,47.1406,260.5,47.1406,260.5,122.4844,250.5,132.4844,111.5,132.4844,111.5,57.1406" style="stroke: #566775; stroke-width: 1.5;"/><line style="stroke: #566775; stroke-width: 1.5;" x1="250.5" x2="259.5" y1="57.1406" y2="48.1406"/><line style="stroke: #566775; stroke-width: 1.5;" x1="111.5" x2="250.5" y1="57.1406" y2="57.1406"/><line style="stroke: #566775; stroke-width: 1.5;" x1="250.5" x2="250.5" y1="57.1406" y2="132.4844"/><text fill="#2C3E50" font-family="sans-serif" font-size="14" font-style="italic" lengthAdjust="spacingAndGlyphs" textLength="60" x="151" y="81.6738">«system»</text><text fill="#2C3E50" font-family="sans-serif" font-size="16" font-weight="bold" lengthAdjust="spacingAndGlyphs" textLength="72" x="145" y="101.3594">System A</text><text fill="#2C3E50" font-family="sans-serif" font-size="14" font-style="italic" lengthAdjust="spacingAndGlyphs" textLength="109" x="126.5" y="119.4082">Awsome software</text></a><!--entity systemB--><polygon fill="#ECF0F1" filter="url(#fov0trq4x97qb)" points="317.5,57.1406,327.5,47.1406,430.5,47.1406,430.5,122.4844,420.5,132.4844,317.5,132.4844,317.5,57.1406" style="stroke: #566775; stroke-width: 1.5;"/><line style="stroke: #566775; stroke-width: 1.5;" x1="420.5" x2="429.5" y1="57.1406" y2="48.1406"/><line style="stroke: #566775; stroke-width: 1.5;" x1="317.5" x2="420.5" y1="57.1406" y2="57.1406"/><line style="stroke: #566775; stroke-width: 1.5;" x1="420.5" x2="420.5" y1="57.1406" y2="132.4844"/><text fill="#2C3E50" font-family="sans-serif" font-size="14" font-style="italic" lengthAdjust="spacingAndGlyphs" textLength="60" x="339" y="81.6738">«system»</text><text fill="#2C3E50" font-family="sans-serif" font-size="16" font-weight="bold" lengthAdjust="spacingAndGlyphs" textLength="73" x="332.5" y="101.3594">System B</text><text fill="#2C3E50" font-family="sans-serif" font-size="14" font-style="italic" lengthAdjust="spacingAndGlyphs" textLength="0" x="371" y="119.4082"/><!--entity systemExt--><polygon fill="#ECF0F1" filter="url(#fov0trq4x97qb)" points="105.5,235.6406,115.5,225.6406,276.5,225.6406,276.5,300.9844,266.5,310.9844,105.5,310.9844,105.5,235.6406" style="stroke: #B6C1C5; stroke-width: 1.5;"/><line style="stroke: #B6C1C5; stroke-width: 1.5;" x1="266.5" x2="275.5" y1="235.6406" y2="226.6406"/><line style="stroke: #B6C1C5; stroke-width: 1.5;" x1="105.5" x2="266.5" y1="235.6406" y2="235.6406"/><line style="stroke: #B6C1C5; stroke-width: 1.5;" x1="266.5" x2="266.5" y1="235.6406" y2="310.9844"/><text fill="#2C3E50" font-family="sans-serif" font-size="14" font-style="italic" lengthAdjust="spacingAndGlyphs" textLength="114" x="129" y="260.1738">«external system»</text><text fill="#2C3E50" font-family="sans-serif" font-size="16" font-weight="bold" lengthAdjust="spacingAndGlyphs" textLength="122" x="125" y="279.8594">External system</text><text fill="#2C3E50" font-family="sans-serif" font-size="14" font-style="italic" lengthAdjust="spacingAndGlyphs" textLength="131" x="120.5" y="297.9082">Authorization system</text><path d="M314,255.1406 L314,281.4922 A0,0 0 0 0 314,281.4922 L434,281.4922 A0,0 0 0 0 434,281.4922 L434,265.1406 L424,255.1406 L378,255.1406 L374,132.4686 L370,255.1406 L314,255.1406 A0,0 0 0 0 314,255.1406 " fill="#FFFFFF" filter="url(#fov0trq4x97qb)" style="stroke: #B6C1C5; stroke-width: 1.0;"/><path d="M424,255.1406 L424,265.1406 L434,265.1406 L424,255.1406 " fill="#FFFFFF" style="stroke: #B6C1C5; stroke-width: 1.0;"/><text fill="#566775" font-family="sans-serif" font-size="13" lengthAdjust="spacingAndGlyphs" textLength="99" x="320" y="273.6357">Work in progress</text><!--link systemA to systemB--><path d="M260.573,89.6406 C277.667,89.6406 295.658,89.6406 312.148,89.6406 " fill="none" id="systemA-&gt;systemB" style="stroke: #566775; stroke-width: 1.0;"/><polygon fill="#566775" points="317.215,89.6406,308.215,85.6406,312.215,89.6406,308.215,93.6406,317.215,89.6406" style="stroke: #566775; stroke-width: 1.0;"/><text fill="#2C3E50" font-family="sans-serif" font-size="12" lengthAdjust="spacingAndGlyphs" textLength="20" x="279" y="83.0977">info</text><!--link systemA to systemExt--><path d="M187.185,132.4686 C187.935,158.9556 188.907,193.2416 189.681,220.5904 " fill="none" id="systemA-&gt;systemExt" style="stroke: #566775; stroke-width: 1.0;"/><polygon fill="#566775" points="189.824,225.6128,193.5673,216.5031,189.6823,220.6148,185.5705,216.7298,189.824,225.6128" style="stroke: #566775; stroke-width: 1.0;"/><text fill="#2C3E50" font-family="sans-serif" font-size="12" lengthAdjust="spacingAndGlyphs" textLength="0" x="192" y="192.0977"/><!--link systemB to systemExt--><path d="M330.632,132.4686 C302.713,159.3956 266.438,194.3826 237.859,221.9464 " fill="none" id="systemB-&gt;systemExt" style="stroke: #566775; stroke-width: 1.0;"/><polygon fill="#566775" points="234.057,225.6128,243.3116,222.2435,237.6557,222.1416,237.7576,216.4856,234.057,225.6128" style="stroke: #566775; stroke-width: 1.0;"/><text fill="#2C3E50" font-family="sans-serif" font-size="12" lengthAdjust="spacingAndGlyphs" textLength="0" x="286" y="192.0977"/><!--link person to systemA--><path d="M72.3566,89.6406 C82.5852,89.6406 94.3101,89.6406 106.257,89.6406 " fill="none" id="person-&gt;systemA" style="stroke: #566775; stroke-width: 1.0;"/><polygon fill="#566775" points="111.386,89.6406,102.386,85.6406,106.386,89.6406,102.386,93.6406,111.386,89.6406" style="stroke: #566775; stroke-width: 1.0;"/><text fill="#2C3E50" font-family="sans-serif" font-size="12" lengthAdjust="spacingAndGlyphs" textLength="0" x="93.25" y="83.0977"/><text fill="#000000" font-family="sans-serif" font-size="14" lengthAdjust="spacingAndGlyphs" textLength="81" x="185.5" y="335.1738">Context View</text><text fill="#888888" font-family="sans-serif" font-size="10" lengthAdjust="spacingAndGlyphs" textLength="246" x="0" y="348.6309">view.context.puml | Thu Feb 27 22:36:00 CET 2020</text><!--
@startuml view.context





skinparam defaultTextAlignment center
skinparam wrapWidth 200
skinparam maxMessageSize 150



















skinparam defaultTextAlignment center
skinparam wrapWidth 200
skinparam maxMessageSize 150



















skinparam Note {
    FontColor #566775
    BackgroundColor white
    BorderColor #b6c1c5
}


skinparam actor<<person>> {
    StereotypeFontColor #2c3e50
    FontColor #2c3e50
    BackgroundColor #566775
    BorderColor #566775
    Shadowing false
}

skinparam Arrow {
    FontColor #2c3e50
    Color #566775
    FontSize 12
}







skinparam node<<system>> {
    StereotypeFontColor #2c3e50
    FontColor #2c3e50
    BackgroundColor #ecf0f1
    BorderColor #566775
}

skinparam node<<external system>> {
    StereotypeFontColor #2c3e50
    FontColor #2c3e50
    BackgroundColor #ecf0f1
    BorderColor #b6c1c5
}



title View Example
top to bottom direction


actor "==User\n //Real client//" <<person>> as person

node "==System A\n //Awsome software//" <<system>> as systemA [[view.container.svg]]
node "==System B\n // //" <<system>> as systemB 
node "==External system\n //Authorization system//" <<external system>> as systemExt 


systemA -RIGHT-> systemB : "info"
systemA -DOWN-> systemExt : ""
systemB -DOWN-> systemExt : ""

person -RIGHT-> systemA : ""

note bottom of systemB : Work in progress


caption Context View
left footer view.context.puml | Thu Feb 27 22:36:00 CET 2020

@enduml

PlantUML version 1.2019.09(Mon Aug 26 18:19:51 CEST 2019)
(GPL source distribution)
Java Runtime: Java(TM) SE Runtime Environment
JVM: Java HotSpot(TM) Client VM
Java Version: 1.8.0_40-b26
Operating System: Windows 8.1
OS Version: 6.3
Default Encoding: Cp1250
Language: pl
Country: PL
--></g></svg>